<?xml version="1.0" encoding="UTF-8"?>
<svg width="15mm" height="15mm" version="1.2" viewBox="0 0 85.093 85.037" xmlns="http://www.w3.org/2000/svg" xmlns:cc="http://creativecommons.org/ns#" xmlns:dc="http://purl.org/dc/elements/1.1/" xmlns:rdf="http://www.w3.org/1999/02/22-rdf-syntax-ns#" xmlns:xlink="http://www.w3.org/1999/xlink">
 <metadata>
  <rdf:RDF>
   <cc:Work rdf:about="">
    <dc:format>image/svg+xml</dc:format>
    <dc:type rdf:resource="http://purl.org/dc/dcmitype/StillImage"/>
   </cc:Work>
  </rdf:RDF>
 </metadata>
 <defs>
  <linearGradient id="linearGradient21">
   <stop style="stop-color:#15c5fe;stop-opacity:1;" offset="0"/>
   <stop style="stop-color:#A100FA;stop-opacity:1;" offset="1"/>
  </linearGradient>
  <linearGradient id="linearGradient6" x1="9.7772" x2="9.7752" y1="7.7227" y2="49.908" gradientTransform="matrix(.75 0 0 .75 -62.244 -60.951)" gradientUnits="userSpaceOnUse" xlink:href="#linearGradient21">
  </linearGradient>
  <linearGradient id="linearGradient23" x1="1.1876" x2="-52.949" y1="-2.7565" y2="-2.2624" gradientTransform="matrix(.99589 0 0 .99589 64.631 -99.866)" gradientUnits="userSpaceOnUse" xlink:href="#linearGradient21"/>
  <linearGradient id="linearGradient24" x1="1.3088" x2="-51.895" y1="-6.3953" y2="-5.8776" gradientTransform="matrix(.98614 0 0 .97924 63.643 -98.96)" gradientUnits="userSpaceOnUse" xlink:href="#linearGradient21"/>
  <linearGradient id="linearGradient25" x1="2.4351" x2="-51.471" y1="-8.8566" y2="-6.928" gradientUnits="userSpaceOnUse" xlink:href="#linearGradient21"/>
 </defs>
 <g id="jufproclamation" transform="translate(7.1079 11.981)">
  <title>JUF Proclamation</title>
  <ellipse transform="matrix(0 -1.5447 1.5572 0 46.384 -7.5562)" cx="-24.661" cy="-7.0289" rx="27.028" ry="26.826" style="fill:none;stroke-width:.99394;stroke:url(#linearGradient25)">
   <title>Circle 03</title>
  </ellipse>
  <circle transform="matrix(0 -1.586 1.586 0 201.17 92.087)" cx="38.357" cy="-105.19" r="25.454" style="fill:none;stroke-width:.92388;stroke:url(#linearGradient24)">
   <title>Circle 02</title>
  </circle>
  <circle transform="matrix(0 -1.586 1.586 0 201.17 92.087)" cx="37.905" cy="-105.86" r="24.558" style="fill:none;stroke-width:.92914;stroke:url(#linearGradient23)">
   <title>Circle 01</title>
  </circle>
  <path id="jufsigil" transform="matrix(1.586 0 0 1.586 192.36 84.709)" d="m-110.19-52.986c-1.7676 0.70312-3.3496 1.6406-4.7461 2.8125-0.5957 0.49805-1.1768 1.0742-1.7432 1.7285-0.56641 0.64453-1.0742 1.377-1.5234 2.1973-0.43945 0.81055-0.7959 1.7139-1.0693 2.71-0.26367 0.98633-0.39551 2.0654-0.39551 3.2373 0 1.084 0.14648 2.085 0.43945 3.0029 0.29297 0.9082 0.69336 1.7285 1.2012 2.4609 0.51758 0.72266 1.123 1.3623 1.8164 1.9189 0.69336 0.54688 1.4404 1.0059 2.2412 1.377 0.81055 0.37109 1.6553 0.64941 2.5342 0.83496s1.7578 0.27832 2.6367 0.27832c0.71289 0 1.3721-0.07813 1.9775-0.23438 0.60547-0.14648 1.1621-0.34668 1.6699-0.60059 0.51758-0.25391 0.98633-0.54688 1.4062-0.87891 0.41992-0.3418 0.80566-0.70312 1.1572-1.084v10.017c-0.0288 0.72601-0.074 1.4304-0.15674 2.0859-0.12695 0.99609-0.29785 1.9092-0.5127 2.7393-0.20507 0.83984-0.43945 1.5967-0.70312 2.2705-0.26367 0.67383-0.53223 1.2744-0.80567 1.8018-0.64453 1.2402-1.377 2.251-2.1973 3.0322l0.26367 0.4834c1.6406-0.71289 3.1055-1.8066 4.3945-3.2812 0.54688-0.625 1.084-1.3721 1.6113-2.2412 0.52734-0.85938 0.99609-1.8555 1.4062-2.9883 0.41016-1.123 0.74219-2.3926 0.99609-3.8086 0.25391-1.4258 0.38086-3.0176 0.38086-4.7754v-3.1377h2.5444v-0.54199c-0.55664 0-1.0059-0.06836-1.3477-0.20508-0.33203-0.14648-0.59082-0.32227-0.77637-0.52734-0.17578-0.20508-0.29785-0.4248-0.36621-0.65918-0.02407-0.0963-0.04001-0.18715-0.0542-0.27686v-4.7446c0-0.26367 0.03418-0.5127 0.10254-0.74707 0.07813-0.23437 0.21484-0.44434 0.41016-0.62988 0.12643-0.12011 0.29235-0.21731 0.47607-0.30469 0.61598 0.0022 1.2734 0.0026 1.7754 0.0088 0.79102 0.0098 1.4697 0.04394 2.0361 0.10254 0.56641 0.0586 1.0352 0.15137 1.4062 0.27832 0.38086 0.12695 0.69336 0.30762 0.9375 0.54199 0.25391 0.23438 0.4541 0.53223 0.60059 0.89355 0.14648 0.35156 0.27344 0.79102 0.38086 1.3184l0.4834-0.08789c0.0098-0.43945 0.04394-0.88867 0.10254-1.3477 0.04883-0.39062 0.12695-0.81055 0.23437-1.2598 0.10742-0.44922 0.26367-0.87891 0.46875-1.2891h-9.4482v-8.9355c0-0.27344 0.03418-0.53223 0.10254-0.77637 0.06836-0.24414 0.19531-0.45898 0.38086-0.64453 0.12872-0.12872 0.29823-0.23172 0.48633-0.32227h3.8643c0.52734 0 1.0693 0.04395 1.626 0.13184 0.55664 0.07813 1.0791 0.23438 1.5674 0.46875 0.48828 0.22461 0.91308 0.54199 1.2744 0.95215 0.36133 0.41016 0.61035 0.94238 0.74707 1.5967l0.5127-0.08789c0-0.03906 0.0049-0.19043 0.01465-0.4541 0.0098-0.26367 0.03906-0.58594 0.08789-0.9668 0.04882-0.38086 0.12207-0.79102 0.21973-1.2305 0.10742-0.44922 0.25879-0.86914 0.4541-1.2598h-18.574v0.54199c0.55664 0 1.0058 0.07325 1.3476 0.21973 0.3418 0.13672 0.60059 0.30762 0.77637 0.5127 0.18555 0.20508 0.30762 0.42969 0.36621 0.67383 0.0684 0.23438 0.10254 0.44922 0.10254 0.64453v8.9385h-2.5444v0.54199c0.52734 0 0.95703 0.06348 1.2891 0.19043 0.33203 0.12695 0.59082 0.28809 0.77637 0.4834 0.19531 0.18555 0.32714 0.39062 0.3955 0.61523 0.0371 0.10674 0.064 0.20896 0.0835 0.30908v0.69873c0 0.9082-0.15625 1.7432-0.46875 2.5049-0.3125 0.75195-0.7373 1.4014-1.2744 1.9482-0.52734 0.54688-1.1426 0.97168-1.8457 1.2744-0.70313 0.30274-1.4502 0.4541-2.2412 0.4541-0.87891 0-1.6943-0.17578-2.4463-0.52734-0.74219-0.35156-1.3867-0.87891-1.9336-1.582-0.54687-0.71289-0.97656-1.5967-1.2891-2.6514-0.30273-1.0645-0.4541-2.3047-0.4541-3.7207 0-1.4941 0.1123-2.8418 0.33691-4.043 0.22461-1.2012 0.50781-2.2656 0.84961-3.1934 0.3418-0.92773 0.71289-1.7236 1.1133-2.3877 0.40039-0.67383 0.77637-1.2305 1.1279-1.6699 0.35157-0.43945 0.64942-0.77148 0.89356-0.99609 0.24414-0.22461 0.38574-0.35156 0.4248-0.38086z" style="fill:url(#linearGradient6);stroke-width:.5625">
   <title>JUF Sigil</title>
  </path>
 </g>
</svg>
