<?xml version="1.0" standalone="no"?>
<!DOCTYPE svg PUBLIC "-//W3C//DTD SVG 20010904//EN"
 "http://www.w3.org/TR/2001/REC-SVG-20010904/DTD/svg10.dtd">
<svg version="1.0" xmlns="http://www.w3.org/2000/svg"
 width="700.000000pt" height="700.000000pt" viewBox="0 0 700.000000 700.000000"
 preserveAspectRatio="xMidYMid meet">
<metadata>
Created by potrace 1.14, written by Peter Selinger 2001-2017
</metadata>
<g transform="translate(0.000000,700.000000) scale(0.100000,-0.100000)"
fill="#000000" stroke="none">
<path d="M3308 6995 c-2 -1 -45 -6 -96 -9 -51 -4 -102 -9 -112 -11 -10 -2 -43
-6 -72 -9 -29 -4 -63 -8 -74 -10 -12 -3 -37 -7 -55 -10 -58 -9 -245 -50 -279
-61 -10 -3 -29 -8 -42 -10 -126 -24 -442 -147 -653 -253 -712 -358 -1310 -982
-1615 -1683 -18 -41 -40 -92 -50 -114 -57 -131 -155 -440 -176 -560 -3 -16
-10 -50 -15 -75 -14 -59 -15 -67 -24 -120 -3 -25 -9 -58 -11 -74 -3 -16 -7
-50 -9 -75 -3 -25 -8 -82 -12 -126 -16 -161 -8 -572 13 -710 2 -16 6 -48 9
-70 13 -113 32 -215 71 -370 26 -104 82 -289 94 -315 5 -8 25 -60 46 -115 150
-397 407 -799 719 -1125 196 -204 384 -361 620 -516 142 -94 159 -103 339
-195 255 -130 564 -241 811 -293 17 -3 41 -9 55 -12 14 -2 61 -11 105 -19 71
-13 106 -18 205 -30 197 -25 655 -25 800 0 14 2 77 11 140 20 432 61 922 243
1310 486 122 76 336 233 435 319 161 139 369 360 491 520 27 36 51 67 54 70
10 10 158 236 192 295 156 264 293 599 368 895 34 136 76 357 86 455 3 39 8
84 11 100 8 60 10 512 2 597 -13 144 -22 210 -39 308 -6 36 -13 79 -16 95 -12
66 -75 305 -104 395 -165 500 -425 937 -780 1313 -464 492 -1034 829 -1685
997 -117 30 -358 74 -465 85 -30 3 -77 8 -105 11 -48 6 -482 14 -487 9z m482
-136 c41 -4 96 -10 121 -13 85 -9 294 -47 394 -72 809 -199 1513 -689 1987
-1384 278 -407 472 -903 542 -1385 3 -22 8 -51 11 -65 14 -83 19 -195 20 -430
0 -309 -6 -389 -52 -640 -2 -14 -10 -53 -18 -86 -8 -34 -16 -73 -19 -85 -12
-60 -49 -184 -86 -294 -181 -524 -487 -994 -891 -1369 -133 -124 -141 -127
-24 -10 228 229 381 422 532 671 61 101 204 385 233 463 7 19 19 49 25 65 65
155 160 504 179 655 3 25 8 54 10 65 2 11 7 49 11 85 4 36 9 76 12 90 8 47 11
525 3 600 -19 174 -21 196 -26 225 -3 17 -7 37 -9 45 -2 8 -7 35 -10 60 -4 25
-18 93 -31 152 -103 456 -324 925 -613 1298 -141 182 -300 352 -460 490 -35
30 -69 60 -75 65 -59 53 -404 295 -421 295 -3 0 -22 11 -43 24 -60 38 -289
151 -387 192 -175 72 -484 166 -625 190 -14 3 -52 9 -85 15 -123 22 -187 30
-350 44 -70 6 -398 6 -470 0 -125 -10 -234 -22 -273 -31 -13 -3 -43 -7 -65
-10 -147 -19 -450 -104 -672 -188 -38 -15 -65 -23 -60 -18 6 5 42 22 80 36 39
15 79 31 90 36 113 53 449 149 605 174 19 3 44 7 55 10 18 3 73 11 145 21 14
2 57 6 95 10 39 4 71 8 73 9 7 7 477 3 542 -5z m-50 -172 c14 -3 52 -9 85 -13
164 -20 263 -39 430 -84 412 -110 800 -302 1155 -574 36 -27 67 -52 70 -55 3
-4 34 -31 70 -61 224 -191 463 -473 631 -743 174 -279 323 -634 395 -937 9
-36 18 -74 20 -85 3 -11 9 -45 14 -75 6 -30 12 -66 15 -80 3 -14 8 -44 11 -66
2 -23 7 -52 9 -63 27 -141 27 -674 0 -821 -3 -14 -7 -44 -10 -67 -23 -192
-118 -543 -200 -738 -9 -22 -24 -58 -33 -80 -30 -73 -125 -259 -175 -345 -93
-158 -274 -411 -367 -511 -160 -172 -401 -399 -424 -399 -4 0 24 26 61 58 220
190 493 524 650 797 165 286 318 682 368 952 2 15 7 39 10 53 10 43 28 159 40
252 20 154 25 461 11 653 -4 60 -9 112 -11 115 -1 3 -6 32 -9 65 -20 176 -97
480 -177 693 -168 448 -431 851 -778 1190 -549 536 -1267 862 -2031 919 -169
13 -519 7 -631 -12 -28 -4 -165 -25 -194 -30 -221 -32 -497 -119 -822 -261
-18 -8 -33 -12 -33 -10 0 7 171 88 275 131 179 74 450 156 610 184 33 6 71 13
85 16 63 13 139 23 245 31 44 4 82 8 84 10 6 6 521 -3 551 -9z m-1660 -137
c-8 -5 -19 -10 -25 -10 -5 0 -3 5 5 10 8 5 20 10 25 10 6 0 3 -5 -5 -10z m-45
-20 c-3 -5 -12 -10 -18 -10 -7 0 -6 4 3 10 19 12 23 12 15 0z m1525 -14 c47
-4 101 -9 120 -11 19 -3 58 -7 85 -11 41 -5 169 -28 269 -49 183 -39 449 -133
651 -231 382 -184 691 -419 1005 -764 77 -85 229 -292 315 -430 153 -243 291
-574 365 -870 146 -581 123 -1185 -65 -1755 -260 -791 -840 -1460 -1580 -1825
-77 -38 -176 -83 -220 -100 -44 -17 -89 -35 -100 -40 -78 -35 -431 -129 -545
-145 -25 -3 -73 -10 -107 -16 -125 -19 -212 -24 -433 -24 -265 0 -345 7 -565
46 -1210 218 -2192 1144 -2485 2342 -16 65 -32 137 -35 160 -3 23 -8 49 -10
57 -4 14 -8 39 -20 132 -28 203 -28 605 0 803 4 22 8 54 9 70 11 93 63 320
105 456 201 652 630 1242 1187 1636 241 170 523 316 784 405 78 26 245 76 280
83 8 2 33 8 55 13 45 12 269 50 330 56 22 3 76 8 120 11 44 4 81 7 82 8 4 5
329 -1 403 -7z m-1680 -201 c0 -2 -18 -14 -40 -25 -22 -11 -40 -18 -40 -15 0
2 17 13 38 24 42 23 42 23 42 16z"/>
<path d="M1859 5878 c-413 -207 -723 -501 -893 -846 -50 -100 -105 -244 -121
-318 -37 -168 -48 -266 -48 -414 0 -349 120 -643 357 -875 81 -79 188 -161
266 -204 147 -80 265 -126 412 -161 452 -107 833 -24 1114 243 36 34 69 63 72
65 9 3 7 -1352 -2 -1448 -4 -41 -9 -93 -12 -115 -3 -22 -7 -51 -9 -65 -62
-454 -248 -906 -477 -1156 -62 -67 -64 -70 -50 -96 7 -16 20 -28 29 -28 23 0
152 72 253 141 102 69 258 213 339 313 234 287 388 624 474 1041 57 271 70
441 71 878 l1 257 165 0 166 0 1 35 c0 19 0 35 -1 35 0 1 -30 3 -66 6 -83 7
-178 51 -214 99 -51 66 -53 83 -51 460 1 379 2 381 59 443 44 50 58 52 297 47
312 -5 435 -26 531 -86 77 -50 131 -138 159 -262 12 -58 13 -59 43 -53 16 4
30 7 32 9 1 1 5 40 8 87 3 47 8 94 10 105 2 11 9 51 16 89 11 58 38 147 65
209 7 16 -26 17 -609 17 l-616 0 0 608 c0 399 4 622 11 648 6 21 22 54 35 72
47 61 55 63 372 63 287 0 348 -3 452 -22 124 -24 233 -76 309 -148 62 -60 83
-92 112 -174 21 -58 27 -67 44 -63 11 3 25 6 31 6 7 0 13 36 17 93 8 120 39
280 70 356 l25 61 -52 1 c-57 0 -2242 0 -2322 0 -46 -1 -50 -3 -48 -23 1 -13
3 -28 3 -34 1 -6 31 -14 68 -18 81 -8 177 -53 212 -97 54 -69 54 -66 55 -717
1 -332 -2 -606 -7 -609 -4 -2 -78 -5 -165 -6 l-157 -2 -3 -32 c-2 -18 -2 -33
0 -34 2 0 30 -3 62 -5 120 -11 218 -69 252 -150 23 -51 22 -219 -1 -328 -54
-258 -228 -475 -455 -566 -98 -40 -155 -52 -265 -55 -381 -12 -658 224 -770
655 -46 177 -58 376 -41 682 3 70 8 133 11 140 2 7 6 36 9 65 3 28 8 57 10 65
3 7 8 31 11 53 10 75 75 304 114 407 62 164 87 213 197 383 80 124 102 152
193 244 l64 64 -23 19 c-12 10 -30 18 -39 18 -10 0 -82 -33 -162 -72z"/>
</g>
</svg>
